<svg xmlns="http://www.w3.org/2000/svg" xmlns:xlink="http://www.w3.org/1999/xlink" width="500" zoomAndPan="magnify" viewBox="0 0 375 374.999991" height="500" preserveAspectRatio="xMidYMid meet" version="1.0"><defs><g/><clipPath id="7cb067a46f"><path d="M 53.371094 66.003906 L 203.371094 66.003906 L 203.371094 304.503906 L 53.371094 304.503906 Z M 53.371094 66.003906 " clip-rule="nonzero"/></clipPath><clipPath id="4e0eeffe53"><path d="M 246.460938 113.652344 L 321.460938 113.652344 L 321.460938 232.898438 L 246.460938 232.898438 Z M 246.460938 113.652344 " clip-rule="nonzero"/></clipPath><clipPath id="daa6d343ec"><rect x="0" width="107" y="0" height="47"/></clipPath></defs><g clip-path="url(#7cb067a46f)"><path stroke-linecap="butt" transform="matrix(0.75, 0, 0, 0.75, 53.372948, 66.003512)" fill="none" stroke-linejoin="miter" d="M -0.00247259 0.000526112 L 200.356928 0.000526112 L 200.356928 318.094317 L -0.00247259 318.094317 Z M -0.00247259 0.000526112 " stroke="#000000" stroke-width="4" stroke-opacity="1" stroke-miterlimit="4"/></g><g clip-path="url(#4e0eeffe53)"><path stroke-linecap="butt" transform="matrix(0.75, 0, 0, 0.75, 246.461386, 113.651316)" fill="none" stroke-linejoin="miter" d="M -0.000597888 0.00137068 L 100.171284 0.00137068 L 100.171284 159.037839 L -0.000597888 159.037839 Z M -0.000597888 0.00137068 " stroke="#000000" stroke-width="4" stroke-opacity="1" stroke-miterlimit="4"/></g><g fill="#000000" fill-opacity="1"><g transform="translate(58.088909, 262.292594)"><g><path d="M 7.109375 0 L 7.109375 -160.6875 L 56.125 -160.6875 L 69.59375 -62.671875 L 83.0625 -160.6875 L 132.4375 -160.6875 L 132.4375 0 L 103.078125 0 L 103.078125 -115.796875 L 84.546875 0 L 55.75 0 L 36.109375 -115.796875 L 36.109375 0 Z M 7.109375 0 "/></g></g></g><g fill="#000000" fill-opacity="1"><g transform="translate(261.048268, 219.986419)"><g><path d="M 4.234375 0 L 4.234375 -95.8125 L 23.203125 -95.8125 L 23.203125 -57.4375 L 32.125 -95.8125 L 51.421875 -95.8125 L 40.703125 -51.96875 L 53.640625 0 L 33.796875 0 L 23.3125 -46.390625 L 23.3125 0 Z M 4.234375 0 "/></g></g></g><g transform="matrix(1, 0, 0, 1, 216, 254)"><g clip-path="url(#daa6d343ec)"><g fill="#000000" fill-opacity="1"><g transform="translate(2.823553, 35.470812)"><g><path d="M 10.03125 0.328125 C 8.46875 0.328125 7.070312 0.132812 5.84375 -0.25 C 4.625 -0.644531 3.601562 -1.15625 2.78125 -1.78125 C 1.96875 -2.40625 1.34375 -3.097656 0.90625 -3.859375 L 3.375 -6.859375 L 3.765625 -6.859375 C 4.441406 -5.847656 5.304688 -5.039062 6.359375 -4.4375 C 7.410156 -3.84375 8.632812 -3.546875 10.03125 -3.546875 C 11.226562 -3.546875 12.128906 -3.796875 12.734375 -4.296875 C 13.347656 -4.804688 13.65625 -5.503906 13.65625 -6.390625 C 13.65625 -6.929688 13.554688 -7.378906 13.359375 -7.734375 C 13.171875 -8.097656 12.847656 -8.410156 12.390625 -8.671875 C 11.929688 -8.929688 11.316406 -9.15625 10.546875 -9.34375 L 7.640625 -10 C 5.597656 -10.46875 4.078125 -11.238281 3.078125 -12.3125 C 2.085938 -13.394531 1.59375 -14.800781 1.59375 -16.53125 C 1.59375 -17.8125 1.910156 -18.9375 2.546875 -19.90625 C 3.191406 -20.875 4.125 -21.625 5.34375 -22.15625 C 6.570312 -22.695312 8.035156 -22.96875 9.734375 -22.96875 C 11.484375 -22.96875 12.976562 -22.738281 14.21875 -22.28125 C 15.46875 -21.820312 16.519531 -21.117188 17.375 -20.171875 L 15.15625 -17.125 L 14.78125 -17.125 C 14.132812 -17.800781 13.398438 -18.304688 12.578125 -18.640625 C 11.753906 -18.972656 10.804688 -19.140625 9.734375 -19.140625 C 8.515625 -19.140625 7.582031 -18.921875 6.9375 -18.484375 C 6.300781 -18.054688 5.984375 -17.460938 5.984375 -16.703125 C 5.984375 -15.984375 6.207031 -15.410156 6.65625 -14.984375 C 7.101562 -14.566406 7.878906 -14.238281 8.984375 -14 L 11.953125 -13.375 C 14.148438 -12.914062 15.742188 -12.128906 16.734375 -11.015625 C 17.734375 -9.910156 18.234375 -8.460938 18.234375 -6.671875 C 18.234375 -5.253906 17.925781 -4.019531 17.3125 -2.96875 C 16.707031 -1.925781 15.789062 -1.113281 14.5625 -0.53125 C 13.332031 0.0390625 11.820312 0.328125 10.03125 0.328125 Z M 10.03125 0.328125 "/></g></g></g><g fill="#000000" fill-opacity="1"><g transform="translate(22.014596, 35.470812)"><g><path d="M 18.15625 -22.640625 L 18.15625 -18.875 L 11.609375 -18.875 L 11.609375 0 L 7.15625 0 L 7.15625 -18.875 L 0.625 -18.875 L 0.625 -22.640625 Z M 18.15625 -22.640625 "/></g></g></g><g fill="#000000" fill-opacity="1"><g transform="translate(40.245313, 35.470812)"><g><path d="M 12.34375 0.328125 C 10.269531 0.328125 8.4375 -0.09375 6.84375 -0.9375 C 5.257812 -1.789062 4.019531 -3.085938 3.125 -4.828125 C 2.226562 -6.566406 1.78125 -8.734375 1.78125 -11.328125 C 1.78125 -13.910156 2.226562 -16.070312 3.125 -17.8125 C 4.019531 -19.550781 5.257812 -20.84375 6.84375 -21.6875 C 8.4375 -22.539062 10.269531 -22.96875 12.34375 -22.96875 C 14.414062 -22.96875 16.242188 -22.546875 17.828125 -21.703125 C 19.410156 -20.859375 20.644531 -19.5625 21.53125 -17.8125 C 22.425781 -16.070312 22.875 -13.910156 22.875 -11.328125 C 22.875 -8.734375 22.425781 -6.5625 21.53125 -4.8125 C 20.644531 -3.070312 19.410156 -1.78125 17.828125 -0.9375 C 16.242188 -0.09375 14.414062 0.328125 12.34375 0.328125 Z M 12.34375 -3.5625 C 14.257812 -3.5625 15.722656 -4.175781 16.734375 -5.40625 C 17.753906 -6.644531 18.265625 -8.617188 18.265625 -11.328125 C 18.265625 -14.023438 17.753906 -15.992188 16.734375 -17.234375 C 15.722656 -18.472656 14.257812 -19.09375 12.34375 -19.09375 C 10.414062 -19.09375 8.941406 -18.472656 7.921875 -17.234375 C 6.898438 -15.992188 6.390625 -14.023438 6.390625 -11.328125 C 6.390625 -8.617188 6.898438 -6.644531 7.921875 -5.40625 C 8.941406 -4.175781 10.414062 -3.5625 12.34375 -3.5625 Z M 12.34375 -3.5625 "/></g></g><g transform="translate(64.919512, 35.470812)"><g><path d="M 2.9375 0 L 2.9375 -22.640625 L 12.03125 -22.640625 C 14.375 -22.640625 16.140625 -22.097656 17.328125 -21.015625 C 18.523438 -19.941406 19.125 -18.457031 19.125 -16.5625 C 19.125 -15.1875 18.773438 -14.054688 18.078125 -13.171875 C 17.378906 -12.296875 16.34375 -11.628906 14.96875 -11.171875 L 14.96875 -10.84375 C 15.675781 -10.53125 16.25 -10.066406 16.6875 -9.453125 C 17.125 -8.847656 17.539062 -7.945312 17.9375 -6.75 L 20.203125 0 L 15.59375 0 L 13.375 -6.765625 C 13.15625 -7.453125 12.898438 -7.984375 12.609375 -8.359375 C 12.328125 -8.734375 11.96875 -9.003906 11.53125 -9.171875 C 11.09375 -9.347656 10.519531 -9.4375 9.8125 -9.4375 L 7.421875 -9.4375 L 7.421875 0 Z M 11.484375 -12.984375 C 13.660156 -12.984375 14.75 -13.992188 14.75 -16.015625 C 14.75 -18.066406 13.660156 -19.09375 11.484375 -19.09375 L 7.421875 -19.09375 L 7.421875 -12.984375 Z M 11.484375 -12.984375 "/></g></g><g transform="translate(86.093165, 35.470812)"><g><path d="M 7.421875 -9.9375 L 7.421875 -3.75 L 18.234375 -3.75 L 18.234375 0 L 2.9375 0 L 2.9375 -22.640625 L 17.984375 -22.640625 L 17.984375 -18.890625 L 7.421875 -18.890625 L 7.421875 -13.59375 L 16.65625 -13.59375 L 16.65625 -9.9375 Z M 7.421875 -9.9375 "/></g></g></g></g></g><path stroke-linecap="butt" transform="matrix(0.75, 0, 0, 0.75, 221.696402, 300.123554)" fill="none" stroke-linejoin="miter" d="M -0.00145259 3.001928 L 133.201681 3.001928 " stroke="#000000" stroke-width="6" stroke-opacity="1" stroke-miterlimit="4"/><path stroke-linecap="butt" transform="matrix(0.696553, 0.278055, -0.278055, 0.696553, 202.521877, 67.231234)" fill="none" stroke-linejoin="miter" d="M -0.00108423 1.003162 L 171.348382 0.99752 " stroke="#000000" stroke-width="2" stroke-opacity="1" stroke-miterlimit="4"/><path stroke-linecap="butt" transform="matrix(0.693367, 0.285906, -0.285906, 0.693367, 202.529816, 95.762307)" fill="none" stroke-linejoin="miter" d="M -0.00143332 1.002548 L 66.858414 0.999147 " stroke="#000000" stroke-width="2" stroke-opacity="1" stroke-miterlimit="4"/><path stroke-linecap="butt" transform="matrix(0.693367, 0.285906, -0.285906, 0.693367, 202.529816, 212.319156)" fill="none" stroke-linejoin="miter" d="M -0.00253204 0.999884 L 66.8593 1.001297 " stroke="#000000" stroke-width="2" stroke-opacity="1" stroke-miterlimit="4"/><path stroke-linecap="butt" transform="matrix(0.693367, 0.285906, -0.285906, 0.693367, 53.990747, 68.042369)" fill="none" stroke-linejoin="miter" d="M -0.00280629 0.999194 L 66.859026 1.000608 " stroke="#000000" stroke-width="2" stroke-opacity="1" stroke-miterlimit="4"/><path stroke-linecap="butt" transform="matrix(-0.649519, 0.375, -0.375, -0.649519, 202.280967, 69.386283)" fill="none" stroke-linejoin="miter" d="M 0.000685229 0.998059 L 64.99359 0.999974 " stroke="#000000" stroke-width="2" stroke-opacity="1" stroke-miterlimit="4"/><path stroke-linecap="butt" transform="matrix(0.649519, -0.375, 0.375, 0.649519, 53.329542, 302.531114)" fill="none" stroke-linejoin="miter" d="M -0.0010058 0.997964 L 63.645598 0.998406 " stroke="#000000" stroke-width="2" stroke-opacity="1" stroke-miterlimit="4"/><path stroke-linecap="butt" transform="matrix(-0.649519, -0.375, 0.375, -0.649519, 199.978014, 303.021074)" fill="none" stroke-linejoin="miter" d="M 0.00198306 0.999565 L 62.603335 1.001192 " stroke="#000000" stroke-width="2" stroke-opacity="1" stroke-miterlimit="4"/></svg>